# xmcd
#
# Track frame offsets: 
#        150
#        13487
#        36232
#        48139
#        65140
#        78510
#        94057
#        112200
#        125627
#        145680
#        156610
#        166645
#
# Disc length: 2422 seconds
#
# Revision: 2
# Processed by: cddbd v1.5.1PL0 Copyright (c) Steve Scherf et al.
# Submitted via: ExactAudioCopy v0.90b4
#
DISCID=aa09740c
DTITLE=Various Artist - Travelin Blues
DYEAR=2000
DGENRE=Blues
TTITLE0=Big Maybelle - I wont cry anymore
TTITLE1=B.B. King - Every day I have the blues
TTITLE2=Leadbelly - Blue Tail Fly
TTITLE3=Joe Liggins - Boom chick a boogie
TTITLE4=Dinah Washington - Rich Mans Blues
TTITLE5=Eddie Vinson - Cleanhead Blues
TTITLE6=Gatemouth Moore - Boogie Woogie Papa
TTITLE7=John Lee Hooker - Trouble Blues
TTITLE8=Lighnin' Hopkins - Shine On Moon
TTITLE9=Ray Charles - A Sentimental Blues
TTITLE10=Joe Williams - 44" Blues
TTITLE11=Bo Diddly - I'm Gong Home
EXTD=
EXTT0=
EXTT1=
EXTT2=
EXTT3=
EXTT4=
EXTT5=
EXTT6=
EXTT7=
EXTT8=
EXTT9=
EXTT10=
EXTT11=
PLAYORDER=
